<svg width="141" height="141" viewBox="0 0 141 141" fill="none" xmlns="http://www.w3.org/2000/svg">
<path fill-rule="evenodd" clip-rule="evenodd" d="M76.5288 48.6181C76.8765 34.0142 70.9654 28.1031 67.4883 25.843C66.9667 25.4953 67.1406 24.626 67.836 24.626H96.5222C107.649 24.626 116.516 33.6665 116.516 44.6194V48.4443C116.516 59.571 107.475 68.4377 96.5222 68.4377C85.3954 68.7854 76.5288 59.571 76.5288 48.6181ZM25.217 73.8271C27.4771 70.3499 33.3882 64.4388 47.9921 64.7866C58.9451 64.7866 68.1594 55.9199 67.8117 44.7931C67.8117 33.8402 58.9451 24.7997 47.8183 24.7997H43.9934C33.0405 24.7997 24 33.6663 24 44.7931V73.4794C24 74.1748 24.8693 74.3486 25.217 73.8271ZM92.6952 76.805C107.299 77.1527 113.21 71.2416 115.47 67.7644C115.818 67.2429 116.687 67.4167 116.687 68.1122V96.9723C116.687 108.099 107.647 116.966 96.6939 116.966H92.8691C81.7423 116.966 72.8756 107.925 72.8756 96.9723C72.5279 85.8455 81.7423 76.805 92.6952 76.805ZM64.3343 92.9748C63.9866 107.579 69.8977 113.49 73.3748 115.75C73.8964 116.098 73.7225 116.967 73.0271 116.967H44.3408C33.214 116.967 24.3474 107.926 24.3474 96.9735V93.1487C24.3474 82.0219 33.3879 73.1552 44.3408 73.1552C55.2938 72.9814 64.3343 82.1957 64.3343 92.9748ZM71.3721 62.1883C70.9631 61.2418 69.6207 61.2418 69.2117 62.1883C67.7643 65.5377 65.1231 68.23 61.8018 69.7408C60.8828 70.1589 60.8828 71.4643 61.8018 71.8824C65.1231 73.3931 67.7643 76.0855 69.2117 79.4348C69.6207 80.3813 70.9631 80.3813 71.3721 79.4348C72.8195 76.0855 75.4607 73.3931 78.7819 71.8824C79.701 71.4643 79.701 70.1589 78.7819 69.7408C75.4607 68.23 72.8195 65.5377 71.3721 62.1883Z" fill="white"/>
</svg>
